<svg id="Ebene_1" data-name="Ebene 1" xmlns="http://www.w3.org/2000/svg" width="544.16" height="391.19" viewBox="0 0 544.16 391.19"><rect x="0.16" width="544" height="390.19" fill="#85c9ff"/><rect x="152.58" y="24.68" width="105.68" height="30.58" fill="#fff"/><polyline points="327.97 219.85 347.06 219.85 347.06 168.51 446.47 168.51" fill="none" stroke="#fff291" stroke-linejoin="round" stroke-width="3"/><path d="M468.13,168.51c22.87.49,52.7.49,75.32,0" transform="translate(0.16)" fill="none" stroke="#fff291" stroke-linejoin="round" stroke-width="3"/><polygon points="544.16 219.36 216.15 212.24 29.13 189.14 29.13 353.78 544.16 353.78 544.16 219.36" fill="#4f7fcc"/><path d="M78.13,82.24c-6.06,0-6.06-4-12.11-4s-6.06,4-12.12,4-6-4-12.11-4-6,4-12.11,4-6.05-4-12.1-4-6.06,4-12.11,4A9.23,9.23,0,0,1,0,80.62V319.13H102.37V82.24c-6.06,0-6.06-4-12.12-4S84.19,82.24,78.13,82.24Z" transform="translate(0.16)" fill="#4f7fcc"/><rect x="361.61" y="212.24" width="182.55" height="37.55" fill="#64cf83"/><path d="M373.6,188.84v6.49l-36-1-.39-77.42h-97.7v93.94H217.66L138.1,58.56l-1.18-34.07h-24V20.36H102.37v9.81h4.69V56.49l-4.69,2.07V190.69l28.92,29.42,135.22,34.06s8.6-3.61,12.51,6.19h17.36a17.13,17.13,0,1,1,.09,19L295,283.68l.4,21.59s3.84,20.13,26.15,11.87,45-19.61,45-19.61V206.69l11.73,1V188.84Z" transform="translate(0.16)" fill="#dedede"/><polygon points="544.13 350.35 457.6 335.13 313.74 341.8 293.63 331.87 29.1 308.88 0 317.33 0 391.19 544.13 391.19 544.13 350.35" fill="#c69c6d"/><path d="M74.23,332.62V291.85l6.25-17h25l3.91-25.29,21.49-7.23L260.65,280s9.06,11.41,16.22.27l6.65,6.71,1,23.47s3.91,33,39.08,22.19,81.3-5.16,81.3-5.16v7.35l-8.6,10.72H273.94l-3.61-8.26Z" transform="translate(0.16)" fill="#dedede"/><rect x="102.53" y="164.88" width="8.26" height="109.94" rx="4.13" fill="#ffb666"/><rect x="284.4" y="195.09" width="8.31" height="85.16" fill="#b5b5b5"/><rect x="254.87" y="188.42" width="67.35" height="20.52" rx="2.63" fill="#8f8f8f"/><ellipse cx="288.55" cy="269.78" rx="15" ry="6.76" fill="#999"/><polygon points="468.48 195.74 445.26 195.74 443.13 205.9 470.61 205.9 468.48 195.74" fill="#dedede"/><polygon points="442.74 160.08 445.62 158.5 456.84 175.25 450.91 178.52 442.74 160.08" fill="#a8a8a8"/><polygon points="470.63 159.8 473.35 161.66 463.43 179.21 457.84 175.38 470.63 159.8" fill="#a8a8a8"/><rect x="445.45" y="175.19" width="22.84" height="5.89" fill="#dedede"/><rect x="441.39" y="179.53" width="30.77" height="21.29" fill="#a8a8a8"/><rect x="435.97" y="205.85" width="41.03" height="6.39" fill="#a8a8a8"/><path d="M171.18,34.79l-1,1.08a4,4,0,0,0-2.79-1.12c-1.25,0-2.24.58-2.24,1.76s.49,1.55,2.72,2.24c2,.61,3.68,1.38,3.68,3.76,0,2.16-1.64,3.67-4.43,3.67a5.8,5.8,0,0,1-4.22-1.6l1-1.1a4.43,4.43,0,0,0,3.21,1.3c1.46,0,2.66-.72,2.66-2.22,0-1.2-.57-1.74-2.68-2.39-2.41-.74-3.67-1.66-3.67-3.58s1.62-3.24,3.91-3.24A5.2,5.2,0,0,1,171.18,34.79Z" transform="translate(0.16)" fill="#333"/><path d="M176.67,46.18a2.38,2.38,0,0,1-2.56-2.7V37.76h-1.65V36.48h1.65V34.34l1.66-.2v2.34H178l-.18,1.28h-2.07v5.65c0,1,.31,1.4,1.13,1.4a2.26,2.26,0,0,0,1.26-.41l.63,1.14A3.61,3.61,0,0,1,176.67,46.18Z" transform="translate(0.16)" fill="#333"/><path d="M187.69,45l-.38,1.15a1.9,1.9,0,0,1-1.86-1.42,3.22,3.22,0,0,1-2.82,1.42,2.76,2.76,0,0,1-3-2.86c0-2,1.53-3.13,4.18-3.13h1.46v-.7c0-1.37-.67-1.88-2-1.88a8.31,8.31,0,0,0-2.56.51l-.41-1.21a9.31,9.31,0,0,1,3.27-.65c2.29,0,3.33,1.17,3.33,3.15v4.34C186.89,44.58,187.2,44.85,187.69,45Zm-2.45-1.57V41.29H184c-1.75,0-2.63.64-2.63,1.94A1.49,1.49,0,0,0,183,44.94,2.43,2.43,0,0,0,185.24,43.46Z" transform="translate(0.16)" fill="#333"/><path d="M195.93,46l-.13-1.48a3.18,3.18,0,0,1-3,1.69c-1.66,0-2.65-1-2.65-2.9v-6.8h1.66V43.1c0,1.3.43,1.79,1.46,1.79a2.87,2.87,0,0,0,2.38-1.64V36.48h1.65V46Z" transform="translate(0.16)" fill="#333"/><path d="M208.12,46h-1.46l-.16-1.32a3.17,3.17,0,0,1-2.74,1.53c-2.31,0-3.58-2-3.58-4.91s1.4-5,3.72-5a3.43,3.43,0,0,1,2.56,1.17v-5l1.66.2Zm-1.66-2.51V38.82a2.7,2.7,0,0,0-2.2-1.24c-1.42,0-2.3,1.19-2.3,3.65s.79,3.64,2.16,3.64A2.71,2.71,0,0,0,206.46,43.46Z" transform="translate(0.16)" fill="#333"/><path d="M218.72,45l-.38,1.15a1.89,1.89,0,0,1-1.85-1.42,3.24,3.24,0,0,1-2.83,1.42,2.76,2.76,0,0,1-3-2.86c0-2,1.53-3.13,4.18-3.13h1.46v-.7c0-1.37-.67-1.88-2-1.88a8.36,8.36,0,0,0-2.56.51l-.41-1.21a9.31,9.31,0,0,1,3.27-.65c2.29,0,3.34,1.17,3.34,3.15v4.34C217.93,44.58,218.23,44.85,218.72,45Zm-2.45-1.57V41.29H215c-1.75,0-2.63.64-2.63,1.94A1.49,1.49,0,0,0,214,44.94,2.42,2.42,0,0,0,216.27,43.46Z" transform="translate(0.16)" fill="#333"/><path d="M233.43,39.16V46h-1.66V39.4c0-1.43-.61-1.84-1.33-1.84-1,0-1.59.67-2.24,1.67V46h-1.65V39.4c0-1.43-.61-1.84-1.34-1.84-1,0-1.6.67-2.23,1.67V46h-1.65V36.48h1.42l.14,1.38a3.19,3.19,0,0,1,2.74-1.6A2.39,2.39,0,0,1,228,38a3.31,3.31,0,0,1,2.83-1.71C232.4,36.26,233.43,37.38,233.43,39.16Z" transform="translate(0.16)" fill="#333"/><path d="M248.85,39.16V46h-1.66V39.4c0-1.43-.61-1.84-1.33-1.84-1,0-1.58.67-2.23,1.67V46H242V39.4c0-1.43-.61-1.84-1.33-1.84-1,0-1.6.67-2.23,1.67V46h-1.66V36.48h1.42l.15,1.38a3.17,3.17,0,0,1,2.73-1.6,2.39,2.39,0,0,1,2.4,1.71,3.3,3.3,0,0,1,2.83-1.71C247.82,36.26,248.85,37.38,248.85,39.16Z" transform="translate(0.16)" fill="#333"/><rect x="329.42" y="252.84" width="71.54" height="30.58" fill="#fff"/><path d="M340,263.18v10.95h-1.71V263.18H334.8v-1.46h8.86l-.18,1.46Z" transform="translate(0.16)" fill="#333"/><path d="M349.92,274.13l-.12-1.48a3.2,3.2,0,0,1-3,1.69c-1.65,0-2.64-1-2.64-2.9v-6.8h1.65v6.62c0,1.3.43,1.79,1.46,1.79a2.87,2.87,0,0,0,2.38-1.64v-6.77h1.65v9.49Z" transform="translate(0.16)" fill="#333"/><path d="M359.82,264.53l-.3,1.62a3.09,3.09,0,0,0-.83-.11c-1.19,0-1.88.85-2.27,2.67v5.42h-1.66v-9.49h1.42l.17,1.92a2.7,2.7,0,0,1,2.54-2.14A4.15,4.15,0,0,1,359.82,264.53Z" transform="translate(0.16)" fill="#333"/><path d="M369.58,269.37c0,3-1.42,5-3.73,5a3.17,3.17,0,0,1-2.52-1.26l-.16,1.05h-1.46V260.82l1.66-.2v5.21a3.17,3.17,0,0,1,2.68-1.41C368.19,264.42,369.58,266.2,369.58,269.37Zm-1.78,0c0-2.7-.89-3.63-2.22-3.63a2.69,2.69,0,0,0-2.21,1.47v4.54a2.54,2.54,0,0,0,2.09,1.28C366.84,273,367.8,272,367.8,269.37Z" transform="translate(0.16)" fill="#333"/><path d="M374.38,261.22a1.16,1.16,0,1,1-1.17-1.14A1.11,1.11,0,0,1,374.38,261.22Zm-2,12.91v-9.49h1.66v9.49Z" transform="translate(0.16)" fill="#333"/><path d="M384.7,267.32v6.81H383v-6.58c0-1.42-.58-1.83-1.49-1.83a2.86,2.86,0,0,0-2.42,1.67v6.74h-1.65v-9.49h1.42L379,266a3.45,3.45,0,0,1,2.9-1.62A2.6,2.6,0,0,1,384.7,267.32Z" transform="translate(0.16)" fill="#333"/><path d="M395.16,270h-6.05c.16,2.2,1.18,3,2.55,3a4,4,0,0,0,2.47-.83l.72,1a5.17,5.17,0,0,1-3.31,1.19c-2.65,0-4.2-1.85-4.2-4.86s1.5-5.06,4-5.06,3.9,1.78,3.9,4.68C395.19,269.43,395.17,269.73,395.16,270Zm-1.61-1.33c0-1.86-.73-2.88-2.23-2.88-1.26,0-2.09.88-2.21,3h4.44Z" transform="translate(0.16)" fill="#333"/><rect x="133.23" y="280.82" width="107.27" height="30.58" fill="#fff"/><path d="M143.28,295.3v5.26h-1.71V288.15h3.26c3.1,0,4.72,1.19,4.72,3.51a3.24,3.24,0,0,1-2.68,3.33l3.35,5.57h-2l-3-5.26Zm4.45-3.64c0-1.55-.88-2.18-2.92-2.18h-1.53V294H145C146.74,294,147.73,293.34,147.73,291.66Z" transform="translate(0.16)" fill="#333"/><path d="M159.7,295.8c0,2.94-1.55,5-4.23,5s-4.23-1.94-4.23-4.95,1.55-5,4.25-5S159.7,292.8,159.7,295.8Zm-6.68,0c0,2.47.87,3.62,2.45,3.62s2.45-1.15,2.45-3.64-.86-3.62-2.43-3.62S153,293.34,153,295.82Z" transform="translate(0.16)" fill="#333"/><path d="M169.66,293.75v6.81H168V294c0-1.43-.61-1.84-1.51-1.84a2.89,2.89,0,0,0-2.4,1.66v6.75h-1.65V287.27l1.65-.18v5.29a3.43,3.43,0,0,1,2.81-1.53A2.62,2.62,0,0,1,169.66,293.75Z" transform="translate(0.16)" fill="#333"/><path d="M178,291l-.3,1.62a3.09,3.09,0,0,0-.83-.11c-1.19,0-1.87.85-2.27,2.67v5.42H173v-9.49h1.43l.16,1.93a2.7,2.7,0,0,1,2.54-2.15A4.08,4.08,0,0,1,178,291Z" transform="translate(0.16)" fill="#333"/><path d="M182.09,299.4a1.63,1.63,0,0,0,.61-.1l.44,1.15a3.16,3.16,0,0,1-1.41.32c-1.2,0-1.89-.72-1.89-2.09V287.25l1.66-.2v11.6C181.5,299.15,181.66,299.4,182.09,299.4Z" transform="translate(0.16)" fill="#333"/><path d="M192.16,296.38h-6c.16,2.2,1.18,3,2.55,3a4,4,0,0,0,2.47-.83l.72,1a5.17,5.17,0,0,1-3.31,1.19c-2.65,0-4.2-1.85-4.2-4.86s1.5-5.06,3.94-5.06,3.91,1.78,3.91,4.68C192.19,295.86,192.17,296.16,192.16,296.38Zm-1.61-1.33c0-1.86-.73-2.88-2.23-2.88-1.26,0-2.09.88-2.21,3h4.44Z" transform="translate(0.16)" fill="#333"/><path d="M196.91,287.65a1.17,1.17,0,1,1-1.17-1.14A1.11,1.11,0,0,1,196.91,287.65Zm-2,12.91v-9.49h1.65v9.49Z" transform="translate(0.16)" fill="#333"/><path d="M202.67,300.77a2.38,2.38,0,0,1-2.56-2.7v-5.72h-1.66v-1.28h1.66v-2.14l1.66-.2v2.34H204l-.18,1.28h-2.07V298c0,.95.3,1.4,1.13,1.4a2.31,2.31,0,0,0,1.26-.41l.63,1.13A3.55,3.55,0,0,1,202.67,300.77Z" transform="translate(0.16)" fill="#333"/><path d="M212.14,300.56l-.13-1.48a3.18,3.18,0,0,1-2.95,1.69c-1.66,0-2.65-1-2.65-2.9v-6.8h1.66v6.62c0,1.3.43,1.79,1.45,1.79a2.86,2.86,0,0,0,2.38-1.64v-6.77h1.66v9.49Z" transform="translate(0.16)" fill="#333"/><path d="M224.2,293.75v6.81h-1.66V294c0-1.43-.58-1.84-1.5-1.84a2.86,2.86,0,0,0-2.41,1.67v6.74H217v-9.49h1.42l.14,1.4a3.45,3.45,0,0,1,2.9-1.62A2.6,2.6,0,0,1,224.2,293.75Z" transform="translate(0.16)" fill="#333"/><path d="M232.4,291.79a2.49,2.49,0,0,1,1.68,2.39c0,1.88-1.35,3.23-3.62,3.23a4.07,4.07,0,0,1-1.21-.18,1.13,1.13,0,0,0-.47.88c0,.43.27.77,1.25.77h1.51c1.94,0,3.24,1.12,3.24,2.63,0,1.84-1.51,2.88-4.45,2.88-3.1,0-4.07-.95-4.07-2.88h1.5c0,1.08.48,1.59,2.57,1.59s2.77-.53,2.77-1.48-.72-1.35-1.9-1.35h-1.5c-1.69,0-2.45-.85-2.45-1.8a2.07,2.07,0,0,1,1.05-1.68,2.71,2.71,0,0,1-1.61-2.62,3.39,3.39,0,0,1,3.66-3.32,8.16,8.16,0,0,0,4.34-.84l.49,1.49A9.39,9.39,0,0,1,232.4,291.79Zm-4,2.38a1.92,1.92,0,0,0,2,2.14c1.29,0,2-.79,2-2.16a1.84,1.84,0,0,0-2-2.11A1.9,1.9,0,0,0,228.39,294.17Z" transform="translate(0.16)" fill="#333"/><rect x="408.88" y="291.91" width="113.42" height="30.58" fill="#fff"/><path d="M420.9,313.16a3.93,3.93,0,0,1-4.32-4.19v-8.43h1.71v8.3c0,1.93.85,2.88,2.61,2.88s2.63-1,2.63-2.88v-8.3h1.73V309A4,4,0,0,1,420.9,313.16Z" transform="translate(0.16)" fill="#333"/><path d="M435.81,306.14v6.8h-1.66v-6.57c0-1.42-.57-1.83-1.49-1.83a2.85,2.85,0,0,0-2.41,1.67v6.73h-1.66v-9.48H430l.14,1.4a3.45,3.45,0,0,1,2.9-1.62A2.6,2.6,0,0,1,435.81,306.14Z" transform="translate(0.16)" fill="#333"/><path d="M441.8,313.16a2.39,2.39,0,0,1-2.56-2.7v-5.73h-1.65v-1.27h1.65v-2.15l1.66-.2v2.35h2.25l-.18,1.27H440.9v5.66c0,.95.31,1.4,1.14,1.4a2.31,2.31,0,0,0,1.26-.41l.63,1.13A3.65,3.65,0,0,1,441.8,313.16Z" transform="translate(0.16)" fill="#333"/><path d="M452.58,308.77h-6c.16,2.19,1.18,3,2.55,3a4,4,0,0,0,2.47-.83l.72,1a5.17,5.17,0,0,1-3.31,1.19c-2.65,0-4.2-1.85-4.2-4.86s1.49-5.06,3.94-5.06,3.91,1.78,3.91,4.68C452.62,308.25,452.6,308.55,452.58,308.77Zm-1.6-1.34c0-1.85-.74-2.88-2.23-2.88-1.26,0-2.09.89-2.21,3H451Z" transform="translate(0.16)" fill="#333"/><path d="M460.41,303.35l-.3,1.62a3.09,3.09,0,0,0-.83-.11c-1.19,0-1.87.85-2.27,2.66v5.42h-1.66v-9.48h1.43l.16,1.92a2.71,2.71,0,0,1,2.54-2.14A4.08,4.08,0,0,1,460.41,303.35Z" transform="translate(0.16)" fill="#333"/><path d="M468.91,312.94l-1.66-8-1.71,8h-2.19l-2.22-9.48h1.66l1.71,8.33,1.87-8.33h1.86l1.78,8.33,1.73-8.33h1.58l-2.16,9.48Z" transform="translate(0.16)" fill="#333"/><path d="M482.57,312l-.38,1.15a1.92,1.92,0,0,1-1.85-1.42,3.24,3.24,0,0,1-2.83,1.42,2.75,2.75,0,0,1-3-2.86c0-2,1.53-3.14,4.17-3.14h1.46v-.7c0-1.37-.66-1.87-2-1.87a8.56,8.56,0,0,0-2.55.5l-.42-1.2a9.37,9.37,0,0,1,3.28-.65c2.29,0,3.33,1.17,3.33,3.15v4.34C481.78,311.56,482.09,311.83,482.57,312Zm-2.45-1.57v-2.18h-1.24c-1.75,0-2.63.65-2.63,1.95a1.5,1.5,0,0,0,1.64,1.71A2.44,2.44,0,0,0,480.12,310.44Z" transform="translate(0.16)" fill="#333"/><path d="M491,304.32l-.72,1.1a4,4,0,0,0-2.45-.87c-1.08,0-1.75.49-1.75,1.25s.51,1.13,2,1.53c2,.5,3.15,1.29,3.15,2.95,0,2-1.82,2.88-3.75,2.88a5.26,5.26,0,0,1-3.58-1.24l.92-1.05a3.92,3.92,0,0,0,2.63,1c1.24,0,2-.56,2-1.39,0-1-.47-1.35-2.3-1.84-2.06-.54-2.87-1.42-2.87-2.77s1.46-2.59,3.42-2.59A5.07,5.07,0,0,1,491,304.32Z" transform="translate(0.16)" fill="#333"/><path d="M499.38,304.32l-.72,1.1a4,4,0,0,0-2.45-.87c-1.08,0-1.74.49-1.74,1.25s.5,1.13,2,1.53c2,.5,3.15,1.29,3.15,2.95,0,2-1.82,2.88-3.74,2.88a5.24,5.24,0,0,1-3.58-1.24l.91-1.05a3.94,3.94,0,0,0,2.63,1c1.24,0,2-.56,2-1.39,0-1-.47-1.35-2.31-1.84-2.05-.54-2.86-1.42-2.86-2.77s1.46-2.59,3.42-2.59A5.06,5.06,0,0,1,499.38,304.32Z" transform="translate(0.16)" fill="#333"/><path d="M509.12,308.77h-6.05c.16,2.19,1.19,3,2.56,3a4,4,0,0,0,2.47-.83l.72,1a5.18,5.18,0,0,1-3.32,1.19c-2.64,0-4.19-1.85-4.19-4.86s1.49-5.06,3.94-5.06,3.91,1.78,3.91,4.68C509.16,308.25,509.14,308.55,509.12,308.77Zm-1.6-1.34c0-1.85-.74-2.88-2.23-2.88-1.26,0-2.09.89-2.22,3h4.45Z" transform="translate(0.16)" fill="#333"/><path d="M517,303.35l-.31,1.62a3,3,0,0,0-.82-.11c-1.19,0-1.88.85-2.27,2.66v5.42h-1.66v-9.48h1.42l.17,1.92a2.7,2.7,0,0,1,2.53-2.14A4.17,4.17,0,0,1,517,303.35Z" transform="translate(0.16)" fill="#333"/><rect x="21.67" y="99.78" width="105.45" height="30.58" fill="#fff"/><path d="M37.09,114.88c0,4.1-2.13,6.41-5.24,6.41s-5.24-2.24-5.24-6.4,2.14-6.44,5.24-6.44S37.09,110.7,37.09,114.88Zm-8.66,0c0,3.59,1.4,5,3.42,5s3.42-1.4,3.42-5-1.3-5-3.42-5S28.43,111.31,28.43,114.89Z" transform="translate(0.16)" fill="#333"/><path d="M47.65,116.32c0,3-1.42,5-3.72,5A3.12,3.12,0,0,1,41.41,120l-.17,1H39.78V107.76l1.66-.19v5.2a3.21,3.21,0,0,1,2.68-1.41C46.27,111.36,47.65,113.15,47.65,116.32Zm-1.78,0c0-2.7-.88-3.64-2.21-3.64a2.69,2.69,0,0,0-2.22,1.48v4.53A2.55,2.55,0,0,0,43.53,120C44.92,120,45.87,118.91,45.87,116.32Z" transform="translate(0.16)" fill="#333"/><path d="M57.61,116.89h-6c.16,2.2,1.19,3,2.55,3a4,4,0,0,0,2.47-.83l.72,1A5.17,5.17,0,0,1,54,121.29c-2.65,0-4.2-1.86-4.2-4.87s1.5-5.06,4-5.06,3.9,1.79,3.9,4.69C57.64,116.37,57.62,116.68,57.61,116.89ZM56,115.56c0-1.85-.73-2.88-2.23-2.88-1.26,0-2.09.88-2.21,3H56Z" transform="translate(0.16)" fill="#333"/><path d="M65.44,111.47l-.31,1.62a3.09,3.09,0,0,0-.83-.11c-1.19,0-1.87.85-2.27,2.67v5.42H60.38v-9.49H61.8l.16,1.93a2.72,2.72,0,0,1,2.54-2.15A4.17,4.17,0,0,1,65.44,111.47Z" transform="translate(0.16)" fill="#333"/><path d="M73.93,121.07l-1.65-8-1.71,8h-2.2l-2.22-9.49h1.66l1.71,8.34,1.87-8.34h1.86L75,119.92l1.73-8.34h1.58l-2.16,9.49Z" transform="translate(0.16)" fill="#333"/><path d="M87.59,120.13l-.37,1.16a1.92,1.92,0,0,1-1.86-1.43,3.23,3.23,0,0,1-2.83,1.43,2.76,2.76,0,0,1-3-2.87c0-2,1.53-3.13,4.18-3.13h1.46v-.7c0-1.37-.67-1.88-2-1.88a8.61,8.61,0,0,0-2.56.51L80.19,112a9.37,9.37,0,0,1,3.28-.65c2.29,0,3.33,1.17,3.33,3.16v4.33C86.8,119.68,87.11,120,87.59,120.13Zm-2.44-1.56v-2.18H83.9c-1.74,0-2.63.65-2.63,1.94A1.49,1.49,0,0,0,82.91,120,2.43,2.43,0,0,0,85.15,118.57Z" transform="translate(0.16)" fill="#333"/><path d="M96,112.44l-.72,1.1a4,4,0,0,0-2.45-.86c-1.08,0-1.75.49-1.75,1.24s.51,1.14,2,1.53c2,.51,3.15,1.3,3.15,3,0,2-1.82,2.89-3.75,2.89A5.26,5.26,0,0,1,88.94,120l.92-1a4,4,0,0,0,2.63,1c1.24,0,2-.55,2-1.38,0-1-.46-1.35-2.3-1.84-2-.54-2.86-1.42-2.86-2.77s1.45-2.6,3.42-2.6A5.06,5.06,0,0,1,96,112.44Z" transform="translate(0.16)" fill="#333"/><path d="M104.41,112.44l-.72,1.1a4,4,0,0,0-2.45-.86c-1.08,0-1.75.49-1.75,1.24s.5,1.14,2,1.53c2,.51,3.16,1.3,3.16,3,0,2-1.82,2.89-3.75,2.89A5.26,5.26,0,0,1,97.35,120l.92-1a4,4,0,0,0,2.62,1c1.25,0,2-.55,2-1.38,0-1-.47-1.35-2.31-1.84-2.05-.54-2.86-1.42-2.86-2.77s1.46-2.6,3.42-2.6A5.07,5.07,0,0,1,104.41,112.44Z" transform="translate(0.16)" fill="#333"/><path d="M114.14,116.89h-6c.17,2.2,1.19,3,2.56,3a4,4,0,0,0,2.47-.83l.72,1a5.18,5.18,0,0,1-3.32,1.19c-2.64,0-4.19-1.86-4.19-4.87s1.49-5.06,3.94-5.06,3.91,1.79,3.91,4.69C114.18,116.37,114.16,116.68,114.14,116.89Zm-1.6-1.33c0-1.85-.74-2.88-2.23-2.88-1.26,0-2.09.88-2.22,3h4.45Z" transform="translate(0.16)" fill="#333"/><path d="M122,111.47l-.3,1.62a3.09,3.09,0,0,0-.83-.11c-1.19,0-1.87.85-2.27,2.67v5.42h-1.66v-9.49h1.43l.16,1.93a2.7,2.7,0,0,1,2.54-2.15A4.08,4.08,0,0,1,122,111.47Z" transform="translate(0.16)" fill="#333"/></svg>